<svg width="216" height="40" viewBox="0 0 216 40" fill="none" xmlns="http://www.w3.org/2000/svg">
<path d="M18.5234 0C20.3582 0 22.0533 0.139799 23.6086 0.559196C25.1638 0.838794 26.4395 1.41547 27.5754 2.11446C28.7112 2.81346 29.55 3.80952 30.1267 5.08519C30.6859 6.36086 30.983 7.91612 30.983 9.61118C30.983 11.5858 30.5636 13.2809 29.5675 14.5566C28.7112 15.8322 27.3132 16.9681 25.6007 17.8069C28.0122 18.5059 29.8471 19.7816 30.9655 21.4766C32.0839 23.1717 32.8003 25.2862 32.8003 27.6977C32.8003 29.6723 32.381 31.3674 31.6645 32.7829C30.9655 34.1983 29.8296 35.474 28.554 36.3128C27.2783 37.1691 25.723 37.8681 24.028 38.2875C22.3329 38.7069 20.6378 38.9865 18.9428 38.9865L0 39.0214V0H18.5234ZM17.3875 15.8322C18.9428 15.8322 20.2184 15.4128 21.197 14.6964C22.1756 13.9799 22.6125 12.7217 22.6125 11.1664C22.6125 10.3102 22.4727 9.47139 22.1931 8.91219C21.9135 8.35299 21.4941 7.91612 20.9174 7.49672C20.3582 7.21713 19.7816 6.93753 19.0826 6.79773C18.3836 6.65793 17.6671 6.65793 16.8283 6.65793H8.63259V15.8497C8.63259 15.8322 17.3875 15.8322 17.3875 15.8322ZM17.8069 32.5208C18.6632 32.5208 19.502 32.381 20.2184 32.2412C20.9174 32.1014 21.6339 31.8218 22.1931 31.3849C22.7523 30.948 23.1892 30.5286 23.6086 29.8296C23.8882 29.1306 24.1678 28.2744 24.1678 27.2783C24.1678 25.3036 23.6086 23.8882 22.4727 22.8921C21.3368 22.0358 19.7816 21.6164 17.9467 21.6164H8.63259V32.5033H17.8069V32.5208ZM45.1027 32.381C46.2385 33.5168 47.9336 34.076 50.1879 34.076C51.7431 34.076 53.1586 33.6566 54.2945 32.9402C55.4303 32.0839 56.1293 31.2451 56.4089 30.3888H63.329C62.1931 33.7789 60.498 36.1905 58.2438 37.7457C55.9895 39.1612 53.2984 40 50.0481 40C47.7938 40 45.8017 39.5806 43.9668 38.8641C42.1319 38.1651 40.7165 37.1691 39.4408 35.7536C38.1651 34.4779 37.1865 32.9227 36.6099 31.0878C35.9109 29.2529 35.6138 27.2783 35.6138 25.0066C35.6138 22.8921 35.8934 20.9 36.6099 19.0651C37.3263 17.2302 38.3049 15.675 39.5806 14.2595C40.8563 12.9838 42.4115 11.848 44.1066 11.149C45.9415 10.45 47.7763 10.0131 50.0481 10.0131C52.4596 10.0131 54.574 10.4325 56.4089 11.4286C58.2438 12.4246 59.6592 13.543 60.7951 15.2381C61.931 16.7934 62.7698 18.6282 63.3464 20.6029C63.626 22.5775 63.7658 24.5697 63.626 26.8239H43.128C43.128 29.1306 43.9668 31.2451 45.1027 32.381ZM54.0149 17.5273C53.0188 16.5312 51.4635 15.972 49.6287 15.972C48.353 15.972 47.3744 16.2516 46.5181 16.671C45.6619 17.0904 45.1027 17.6671 44.5435 18.2263C43.9843 18.7855 43.6872 19.502 43.5474 20.201C43.4076 20.9 43.2678 21.4766 43.2678 22.0358H55.9895C55.7099 19.9388 54.9934 18.5234 54.0149 17.5273ZM41.5727 2.69113H57.405V6.50066H41.5727V2.69113ZM74.6527 0V14.6964H74.7925C75.7886 13.0013 77.0467 11.8654 78.602 11.1664C80.1573 10.4675 81.5727 10.0306 83.128 10.0306C85.2425 10.0306 86.9375 10.3102 88.2132 10.8869C89.4889 11.446 90.6247 12.3023 91.3237 13.2984C92.0227 14.2945 92.5994 15.5526 92.879 16.9681C93.1586 18.3836 93.2984 19.9388 93.2984 21.7737V39.1612H85.5221V23.1892C85.5221 20.7776 85.1027 19.0826 84.3862 17.9642C83.6697 16.8458 82.429 16.2516 80.5941 16.2516C78.4797 16.2516 76.9244 16.9506 76.0681 18.0865C75.0721 19.3622 74.6527 21.4766 74.6527 24.3076V39.1612H66.8764V0H74.6527ZM98.9777 14.9934C99.834 13.7178 100.813 12.879 102.088 12.0227C103.364 11.3237 104.779 10.7471 106.335 10.4675C107.89 10.1879 109.445 10.0481 111 10.0481C112.416 10.0481 113.831 10.1879 115.387 10.3277C116.802 10.4675 118.218 10.8869 119.353 11.4635C120.629 12.0227 121.468 12.879 122.324 13.8751C123.023 14.8711 123.46 16.2866 123.46 17.9817V32.8353C123.46 34.111 123.6 35.3866 123.74 36.505C123.879 37.6409 124.299 38.6195 124.736 39.1962H116.82C116.54 38.9166 116.4 38.3399 116.26 37.9205C116.121 37.5011 116.121 36.9244 116.121 36.505C114.845 37.7807 113.429 38.6195 111.734 39.1962C110.039 39.7554 108.344 39.8952 106.649 39.8952C105.234 39.8952 104.098 39.7554 102.84 39.336C101.704 39.0564 100.725 38.4797 99.7291 37.7807C98.8729 37.0817 98.1739 36.2254 97.6147 35.0896C97.1953 33.9537 96.9157 32.8353 96.9157 31.28C96.9157 29.7248 97.1953 28.3093 97.7719 27.3132C98.3311 26.3172 99.0476 25.4784 99.8864 24.7619C100.743 24.2027 101.861 23.626 102.997 23.3464C104.133 23.0668 105.251 22.7872 106.527 22.6474C107.663 22.5076 108.781 22.3678 109.917 22.228C111.053 22.0882 112.031 21.9485 112.888 21.8087C113.744 21.5291 114.443 21.2495 115.002 20.8126C115.561 20.3932 115.701 19.8165 115.701 18.9777C115.701 18.1215 115.561 17.4225 115.282 17.0031C115.002 16.5837 114.583 16.1468 114.146 15.8672C113.727 15.5876 113.15 15.4478 112.591 15.308C112.031 15.1682 111.315 15.1682 110.616 15.1682C109.061 15.1682 107.925 15.4478 107.086 16.1643C106.23 16.8633 105.671 17.9991 105.531 19.4146H97.7545C97.7021 17.6671 98.2613 16.1118 98.9777 14.9934ZM114.391 26.0201C113.971 26.1599 113.394 26.2997 112.835 26.4395C112.276 26.5793 111.699 26.5793 111 26.7191C110.441 26.8589 109.725 26.8589 109.166 26.9987C108.606 27.1385 108.03 27.2783 107.471 27.4181C106.911 27.5579 106.335 27.8375 106.055 28.1171C105.636 28.3967 105.356 28.8161 105.059 29.2529C104.64 29.8121 104.64 30.3888 104.64 31.0878C104.64 31.7868 104.779 32.3635 105.059 32.7829C105.339 33.2023 105.618 33.6391 106.055 33.9187C106.474 34.1983 107.051 34.3381 107.61 34.4779C108.17 34.6177 108.746 34.6177 109.445 34.6177C111 34.6177 112.136 34.3381 112.975 33.9187C113.831 33.3595 114.391 32.7829 114.81 32.0839C115.229 31.3849 115.509 30.6684 115.509 29.9694C115.649 29.2704 115.649 28.6938 115.649 28.2744V25.3036C115.229 25.5832 114.81 25.8803 114.391 26.0201ZM135.168 10.7471V14.7138H135.308C136.304 13.0188 137.562 11.8829 139.118 11.1839C140.673 10.4849 142.368 10.0481 143.923 10.0481C146.038 10.0481 147.733 10.3277 149.008 10.9043C150.424 11.4635 151.42 12.3198 152.119 13.3159C152.818 14.3119 153.394 15.5701 153.814 16.9856C154.093 18.401 154.233 19.9563 154.233 21.7912V39.1787H146.457V23.2066C146.457 20.7951 146.038 19.1 145.321 17.9817C144.622 16.8458 143.346 16.1468 141.354 16.1468C139.24 16.1468 137.685 17.0031 136.689 18.2612C135.692 19.5369 135.273 21.6514 135.273 24.4823V39.336H127.497V10.7471H135.168ZM171.656 15.8322C170.38 15.8322 169.401 16.1118 168.545 16.6885C167.689 17.2477 166.99 17.9642 166.431 18.9428C165.872 19.799 165.574 20.7776 165.295 21.9135C165.015 23.0494 165.015 24.028 165.015 25.1638C165.015 26.1599 165.155 27.2783 165.295 28.2744C165.574 29.4102 165.854 30.249 166.431 31.1053C166.99 31.9616 167.567 32.6606 168.405 33.2197C169.262 33.7789 170.24 34.076 171.516 34.076C173.351 34.076 174.766 33.5168 175.902 32.5208C176.898 31.5247 177.597 30.1092 177.737 28.2744H185.234C184.675 32.0839 183.259 34.9148 180.848 36.9069C178.436 38.8816 175.325 39.8777 171.516 39.8777C169.401 39.8777 167.409 39.4583 165.714 38.7418C163.879 38.0428 162.464 37.0467 161.188 35.7711C159.913 34.4954 158.934 32.9402 158.218 31.2451C157.519 29.4102 157.221 27.5754 157.221 25.4434C157.221 23.1892 157.501 21.197 158.218 19.3622C158.917 17.5273 159.773 15.8322 161.048 14.4168C162.324 13.0013 163.879 12.0052 165.574 11.1664C167.409 10.4675 169.384 10.0306 171.656 10.0306C173.351 10.0306 174.906 10.3102 176.461 10.7296C178.017 11.149 179.432 11.8654 180.568 12.7042C181.844 13.5605 182.822 14.6789 183.539 16.0944C184.238 17.37 184.675 19.0651 184.814 20.9H177.178C176.881 17.5273 175.046 15.8322 171.656 15.8322ZM196.959 32.381C198.095 33.5168 199.93 34.076 202.045 34.076C203.6 34.076 205.015 33.6566 206.151 32.9402C207.287 32.0839 207.986 31.2451 208.266 30.3888H215.046C213.91 33.7789 212.215 36.1905 209.961 37.7457C207.706 39.1612 205.015 40 201.765 40C199.511 40 197.519 39.5806 195.684 38.8641C193.849 38.1651 192.433 37.1691 191.158 35.7536C189.882 34.4779 188.903 32.9227 188.327 31.0878C187.628 29.2529 187.331 27.2783 187.331 25.0066C187.331 22.8921 187.61 20.9 188.327 19.0651C189.026 17.2302 190.022 15.675 191.298 14.2595C192.573 12.9838 194.128 11.848 195.823 11.149C197.658 10.45 199.633 10.0131 201.765 10.0131C204.176 10.0131 206.291 10.4325 207.986 11.4286C209.821 12.4246 211.236 13.543 212.372 15.2381C213.508 16.7934 214.347 18.6282 214.924 20.6029C215.483 22.5775 215.623 24.7095 215.483 26.9637H194.985C194.985 29.1306 195.823 31.2451 196.959 32.381ZM206.011 17.5273C205.015 16.5312 203.46 15.972 201.625 15.972C200.35 15.972 199.371 16.2516 198.515 16.671C197.658 17.0904 196.959 17.6671 196.54 18.2263C196.121 18.7855 195.684 19.502 195.544 20.201C195.404 20.9 195.264 21.4766 195.264 22.0358H207.986C207.567 19.9388 206.85 18.5234 206.011 17.5273Z" fill="#9098B1"/>
</svg>
