<svg width="164" height="40" viewBox="0 0 164 40" fill="none" xmlns="http://www.w3.org/2000/svg">
<path d="M50.0313 16.0939C51.9055 16.0939 53.4247 14.5741 53.4247 12.6996C53.4247 10.8248 51.9055 9.30534 50.0313 9.30534C48.1572 9.30534 46.638 10.8248 46.638 12.6996C46.638 14.5741 48.1572 16.0939 50.0313 16.0939ZM162.021 27.6911C161.505 27.3281 161.106 27.2679 160.776 27.9728C155.076 40.3167 145.472 34.1569 146.426 34.699C148.556 33.7245 154.159 29.231 153.312 23.0264C152.798 19.2346 149.544 17.5526 146.089 18.1549C140.059 19.2061 137.841 25.7101 138.97 31.4682C139.168 32.4571 139.521 33.2726 139.874 34.0715C133.06 39.6128 130.354 29.1111 130.047 27.8561C130.034 27.7889 135.308 23.3933 136.775 12.9187C138.312 1.94075 134.81 -0.0581513 131.229 0.00421438C124.602 0.119671 122.811 13.9652 125.217 25.5044C125.016 25.5569 124.078 26.0763 122.571 26.1345C121.487 22.7229 116.854 19.7326 115.642 20.8849C112.607 23.7675 116.378 29.4031 119.031 29.8451C117.437 39.6608 107.47 37.2298 109.326 24.9323C112.571 18.9052 115.04 9.94338 114.599 4.53324C114.443 2.61782 113.027 0.0515483 109.824 0.178838C103.664 0.422544 102.995 14.2719 103.717 24.1014C103.681 23.8592 103.338 25.2956 100.814 26.0097C100.217 22.6954 94.8799 19.3686 93.6237 20.968C91.272 23.9616 95.3475 29.2991 97.278 29.6714C95.6843 39.4868 85.7179 37.0558 87.5732 24.7583C90.8188 18.7315 93.2869 9.76972 92.8465 4.35958C92.6904 2.44383 91.2746 -0.122436 88.0715 0.0045342C81.9114 0.24856 81.2417 14.0979 81.9639 23.9274C81.9277 23.6814 81.5769 25.1651 78.9495 25.8674C78.8616 21.5674 73.5055 19.5957 72.2188 20.9677C69.9257 23.4134 72.744 28.4314 75.3512 29.6714C73.7575 39.4868 63.7911 37.0558 65.6464 24.7583C68.892 18.7315 71.3604 9.76972 70.9197 4.35958C70.7639 2.44383 69.3478 -0.122436 66.1447 0.0045342C59.9849 0.24856 59.4892 14.7942 60.2113 24.6233C58.1824 33.3164 51.3781 44.1725 52.2621 22.4255C52.3494 20.8999 52.4447 20.3207 51.6842 19.7495C51.1143 19.3056 49.8183 19.5192 49.1099 19.5368C48.249 19.5714 48.0331 20.0751 47.8428 20.8366C47.3995 22.8029 47.3199 24.709 47.2565 27.3098C47.215 28.5264 47.1174 29.0941 46.6489 30.753C46.181 32.4117 43.5114 35.4433 42.0498 34.9363C40.0221 34.2391 40.6874 28.5149 41.0673 24.582C41.3839 21.474 40.3701 20.0783 37.7725 19.5707C36.2517 19.2538 35.3278 19.3024 33.744 18.8031C32.2463 18.3311 31.9076 15.4981 28.7132 16.4422C26.966 16.959 28.0892 20.661 27.6693 23.4048C25.6048 36.9017 21.3092 37.2723 19.3164 30.7159C28.2916 8.73413 21.9127 0.0681792 18.1788 0.0681792C14.2897 0.0681792 9.84418 2.74702 11.7267 19.887C10.8113 19.62 10.5299 19.4761 9.52788 19.4761C3.86092 19.4761 0 24.0572 0 29.7085C0 35.3598 3.86123 39.9413 9.5282 39.9413C12.8736 39.9413 15.2223 38.4199 17.0012 36.0663C18.1618 37.7284 19.5751 39.9669 22.1596 39.8661C29.8632 39.5661 32.1036 23.7639 32.3681 22.8825C33.1917 23.0095 33.9707 23.2497 34.7313 23.3766C35.9984 23.5669 36.0905 24.0684 36.0618 25.3429C35.7259 36.0903 37.7092 39.8533 42.2078 39.8533C44.7143 39.8533 46.9482 37.3907 48.4872 35.6297C49.6367 38.0022 51.4683 39.7807 53.9255 39.853C59.8797 40.0011 62.1594 30.5109 61.9515 31.7599C61.7884 32.7398 63.8832 39.7996 70.013 39.8252C77.6059 39.8572 79.0173 31.5072 79.1855 30.1086C79.2066 29.8304 79.2159 29.8591 79.1855 30.1086L79.1798 30.1934C81.5903 29.745 82.8341 28.4526 82.8341 28.4526C82.8341 28.4526 84.7697 39.955 91.9395 39.8255C99.385 39.6905 100.789 32.1427 100.973 30.6709C100.998 30.3216 101.012 30.3625 100.973 30.6709C100.972 30.6852 100.971 30.6996 100.97 30.714C103.834 29.6724 104.587 28.6269 104.587 28.6269C104.587 28.6269 106.125 39.9007 113.692 39.9992C120.435 40.0874 122.935 33.1821 122.949 30.2919C124.087 30.304 126.19 29.617 126.141 29.578C126.141 29.578 128.611 39.435 135.509 39.9413C138.747 40.1789 141.177 38.1189 142.562 37.1793C145.816 39.8149 156.653 43.1814 163.496 31.5798C164.462 29.9148 162.386 27.9479 162.021 27.6911ZM9.25475 36.1143C5.94841 36.1143 3.82829 33.0571 3.82829 29.7606C3.82829 26.4645 5.77442 23.4073 9.08076 23.4073C10.5686 23.4073 11.3963 23.5711 12.555 24.5788C12.7651 25.4069 13.3606 27.3169 13.6504 28.1842C14.0387 29.3449 14.5005 30.3328 14.9662 31.408C14.3009 34.1659 12.12 36.1143 9.25475 36.1143ZM17.3118 24.6758C17.1742 24.4567 17.203 24.5913 17.0492 24.3844C16.4431 22.7357 15.2751 19.0558 15.1398 14.876C14.987 10.1477 15.775 4.60552 18.0982 4.60552C19.6724 4.60552 21.3454 15.8377 17.3114 24.6758H17.3118ZM63.8657 19.7492C63.4927 16.9434 63.4732 4.43506 66.4761 4.77951C68.134 5.45114 65.4248 17.2542 63.8657 19.7492ZM85.7925 19.7492C85.4195 16.9434 85.4 4.43506 88.4029 4.77951C90.0608 5.45114 87.3516 17.2542 85.7925 19.7492ZM107.545 19.9235C107.172 17.1174 107.153 4.60904 110.155 4.95349C111.813 5.62512 109.104 17.4285 107.545 19.9235ZM131.56 4.04743C134.306 3.76279 134.192 15.7517 128.682 23.3207C127.971 20.5849 126.882 4.98675 131.56 4.04711V4.04743ZM143.099 29.8451C142.218 25.3909 144.496 22.4654 146.845 22.1447C147.666 22.0135 148.856 22.5454 149.093 23.5397C149.483 25.4136 149.036 28.1932 143.779 31.7199C143.787 31.7499 143.296 30.8372 143.1 29.8451H143.099Z" fill="#9098B1"/>
</svg>
