<svg width="194" height="40" viewBox="0 0 194 40" fill="none" xmlns="http://www.w3.org/2000/svg">
<path d="M30.0527 12.3015H38.5977V39.1534H30.0527V12.3015Z" fill="#9098B1"/>
<path d="M40.3967 12.3016H48.6242V15.9789H48.783C50.7671 13.0953 53.3332 11.5344 57.0634 11.5344C62.9364 11.5344 66.402 15.7408 66.402 21.7196V39.1799H57.857V23.4392C57.857 20.6085 56.4285 18.6773 53.6507 18.6773C50.82 18.6773 48.9417 21.0318 48.9417 24.3387V39.1535H40.3967V12.3016Z" fill="#9098B1"/>
<path d="M34.3386 10.2646C37.1731 10.2646 39.4708 7.96675 39.4708 5.13228C39.4708 2.2978 37.1731 0 34.3386 0C31.5041 0 29.2063 2.2978 29.2063 5.13228C29.2063 7.96675 31.5041 10.2646 34.3386 10.2646Z" fill="#9098B1"/>
<path d="M126.508 11.9312C126.27 11.9048 125.979 11.9048 125.661 11.9048C122.407 11.9048 120.212 13.3334 118.307 16.508H118.148V12.3016H109.974V39.1535H118.519V27.09C118.519 21.508 121.614 18.9154 126.508 19.3651V11.9312Z" fill="#9098B1"/>
<path d="M168.466 22.2223C165.053 21.5873 162.011 21.3228 162.011 19.4445C162.011 17.7778 163.624 16.9842 165.741 16.9842C168.095 16.9842 169.735 17.7249 170.053 20.1323H177.91C177.487 14.8413 173.413 11.5344 165.794 11.5344C159.444 11.5344 154.206 14.4709 154.206 20.1323C154.206 26.4286 159.18 27.672 163.862 28.4656C167.434 29.1006 170.688 29.3651 170.688 31.7725C170.688 33.4921 169.074 34.4445 166.482 34.4445C163.915 34.4445 162.196 33.3598 161.667 31.1376H153.519C154.127 36.6667 158.968 40 166.534 40C173.571 40 178.757 36.9577 178.757 31.0847C178.757 24.2064 173.175 23.0159 168.466 22.2223Z" fill="#9098B1"/>
<path d="M140.238 33.8094C136.72 33.8094 134.735 31.5607 134.206 27.9364H153.492C153.545 22.4866 151.984 17.8041 148.783 14.8676C146.481 12.7777 143.439 11.5078 139.603 11.5078C131.429 11.5078 125.82 17.6454 125.82 25.6613C125.82 33.7829 131.27 39.9205 140.132 39.9205C143.545 39.9205 146.27 39.021 148.518 37.4602C150.873 35.8464 152.46 33.5184 153.016 31.111H144.709C143.968 32.8041 142.513 33.8094 140.238 33.8094ZM139.788 17.6189C142.566 17.6189 144.55 19.656 144.868 22.857H134.286C134.841 19.656 136.534 17.6189 139.788 17.6189Z" fill="#9098B1"/>
<path d="M193.81 32.8307C193.413 32.8572 192.884 32.8572 192.381 32.8572C190.556 32.8572 189.392 32.3281 189.392 30.2381V17.672H193.81V12.3016H189.392V3.80957H181.058V12.3016H178.439V17.6455H181.058V32.0635C181.058 37.8307 184.63 39.4709 189.603 39.4709C191.508 39.4709 192.937 39.3387 193.81 39.1535V32.8307Z" fill="#9098B1"/>
<path d="M81.6667 32.8307C81.3228 32.8307 80.926 32.8572 80.5556 32.8572C78.7302 32.8572 77.5662 32.3281 77.5662 30.2381V17.672H81.6667V12.3016H77.5662V3.80957H69.2329V12.3016H66.4551V17.6455H69.2329V32.0635C69.2329 37.8307 72.8043 39.4709 77.7778 39.4709C79.471 39.4709 80.7937 39.3651 81.6667 39.2064V32.8307Z" fill="#9098B1"/>
<path d="M81.2434 25.6879C81.2434 17.672 86.8519 11.5344 95.0265 11.5344C98.8625 11.5344 101.905 12.8043 104.206 14.8942C107.407 17.8307 108.968 22.4868 108.915 27.963H89.6296C90.1587 31.5873 92.1429 33.836 95.6614 33.836C97.9101 33.836 99.3916 32.8307 100.106 31.1641H108.466C107.884 33.5715 106.323 35.8731 103.968 37.5133C101.72 39.0741 98.9947 39.9736 95.582 39.9736C86.6931 39.9471 81.2434 33.8096 81.2434 25.6879ZM100.291 22.8572C99.9736 19.6561 97.9894 17.6191 95.2117 17.6191C91.9577 17.6191 90.291 19.6561 89.709 22.8572H100.291Z" fill="#9098B1"/>
<path d="M0 1.6665H14.8413C19.3915 1.6665 22.7513 2.93634 25.0794 5.13211C27.4868 7.38079 28.836 10.5818 28.836 14.3649C28.836 21.5607 23.8624 26.64 16.1376 26.64H8.65079V39.1533H0V1.6665ZM15.2116 19.2856C18.5714 19.2856 20.4497 17.3014 20.4497 14.312C20.4497 11.3226 18.5185 9.49719 15.2116 9.49719H8.65079V19.312H15.2116V19.2856Z" fill="#9098B1"/>
</svg>
