<svg width="220" height="43" viewBox="0 0 220 43" fill="none" xmlns="http://www.w3.org/2000/svg">
<path d="M61.7101 34.147C60.4299 34.5206 59.4248 34.7097 58.687 34.7097C56.2625 34.7097 54.4946 34.1923 53.3832 33.1575C52.2749 32.1227 51.7216 30.4736 51.7216 28.2101V17.7729H49.4722V14.398H51.7216V11.0451L57.0801 10.4292V14.398H61.3146V17.7729H57.0801V27.4941C57.0801 29.9217 58.0742 31.1363 60.0657 31.1363C60.5252 31.1363 61.0708 31.0488 61.7101 30.8721V34.147ZM79.8956 33.5861C77.357 34.3333 74.9497 34.71 72.6738 34.71C69.363 34.71 66.7494 33.7674 64.8377 31.887C62.9228 30.0049 61.9677 27.4367 61.9677 24.179C61.9677 21.1027 62.8415 18.6267 64.5954 16.7494C66.343 14.8735 68.658 13.9357 71.5342 13.9357C74.437 13.9357 76.5535 14.8579 77.8916 16.6993C79.2234 18.5438 79.8956 21.4591 79.8956 25.4483H67.656C68.0156 29.1952 70.0837 31.071 73.8555 31.071C75.6407 31.071 77.6525 30.652 79.8956 29.8126V33.5861ZM67.656 22.4049H74.6012C74.6012 19.0096 73.5382 17.3105 71.4092 17.3105C69.2489 17.3105 67.9984 19.0096 67.656 22.4049ZM82.6724 34.2447V14.3988H88.0324V18.1051C89.4205 15.3242 91.5355 13.9362 94.3773 13.9362C94.7149 13.9362 95.0479 13.9689 95.373 14.044V18.832C94.6133 18.5662 93.9068 18.4349 93.2518 18.4349C91.1118 18.4349 89.372 19.4947 88.0324 21.6128V34.2447L82.6724 34.2447ZM96.7284 34.2447V14.3988H102.087V18.1051C103.477 15.3242 105.59 13.9362 108.435 13.9362C108.771 13.9362 109.104 13.9689 109.429 14.044V18.832C108.669 18.5662 107.963 18.4349 107.311 18.4349C105.169 18.4349 103.427 19.4947 102.087 21.6128V34.2447L96.7284 34.2447ZM126.926 33.5861C124.389 34.3333 121.98 34.71 119.706 34.71C116.394 34.71 113.782 33.7674 111.868 31.887C109.956 30.0049 108.998 27.4367 108.998 24.179C108.998 21.1027 109.875 18.6267 111.624 16.7494C113.375 14.8735 115.692 13.9357 118.569 13.9357C121.468 13.9357 123.586 14.8579 124.924 16.6993C126.259 18.5438 126.926 21.4591 126.926 25.4483H114.687C115.048 29.1952 117.116 31.071 120.889 31.071C122.673 31.071 124.688 30.652 126.926 29.8126V33.5861ZM114.687 22.4049H121.633C121.633 19.0096 120.572 17.3105 118.444 17.3105C116.283 17.3105 115.03 19.0096 114.687 22.4049Z" fill="#9098B1"/>
<path d="M129.64 34.2448V14.399H134.799V18.1333C136.37 15.3353 138.602 13.9363 141.502 13.9363C142.999 13.9363 144.231 14.3036 145.198 15.0399C146.16 15.7776 146.755 16.8078 146.974 18.1333C148.827 15.3353 151.071 13.9363 153.701 13.9363C157.332 13.9363 159.145 15.9371 159.145 19.9404V34.2448H153.983V21.6942C153.983 19.3464 153.205 18.1693 151.642 18.1693C150.044 18.1693 148.484 19.3276 146.974 21.6411V34.2448H141.811V21.7114C141.811 19.3495 141.023 18.1693 139.445 18.1693C137.864 18.1693 136.317 19.3276 134.799 21.6411V34.2448H129.64ZM172.497 32.1238C170.712 33.8479 168.805 34.7092 166.772 34.7092C165.036 34.7092 163.625 34.1808 162.545 33.121C161.458 32.058 160.919 30.6841 160.919 28.9959C160.919 26.8012 161.793 25.1099 163.547 23.9219C165.301 22.7339 167.81 22.1383 171.07 22.1383H172.497V20.3547C172.497 18.3258 171.322 17.3097 168.969 17.3097C166.881 17.3097 164.775 17.9052 162.637 19.0964V15.3917C165.065 14.4225 167.467 13.9364 169.848 13.9364C175.055 13.9364 177.656 16.006 177.656 20.1421V28.9365C177.656 30.4918 178.128 31.2687 179.074 31.2687C179.291 31.2687 179.588 31.203 179.969 31.0718V34.2043C178.838 34.5419 177.834 34.7092 176.965 34.7092C174.769 34.7092 173.359 33.8479 172.73 32.1237L172.497 32.1238ZM172.497 29.246V25.1833H171.236C169.634 25.1833 168.369 25.4741 167.453 26.0556C166.536 26.637 166.078 27.4374 166.078 28.4534C166.078 29.1944 166.328 29.8165 166.825 30.3167C167.32 30.8201 167.936 31.0718 168.666 31.0718C169.914 31.0718 171.189 30.4621 172.497 29.246ZM181.831 34.2448V14.399H187.189V18.1052C188.574 15.3243 190.694 13.9363 193.532 13.9363C193.87 13.9363 194.205 13.9691 194.531 14.0441V18.8321C193.77 18.5663 193.062 18.435 192.408 18.435C190.27 18.435 188.532 19.4948 187.189 21.6129V34.2448L181.831 34.2448ZM195.884 34.2447V5.66553H201.245V23.6528H201.584L208.583 14.3989H213.021L206.594 22.9009L215.071 34.2447H208.575L201.584 24.3234H201.245V34.2448L195.884 34.2447Z" fill="#9098B1"/>
<path d="M19.6927 21.2558C25.184 14.5546 34.4989 14.3545 40.492 13.0711C40.5155 13.0649 40.5389 13.0602 40.5639 13.0539C40.4373 12.7476 40.3044 12.4443 40.1622 12.1442C40.1309 12.1364 40.1059 12.1286 40.0746 12.1207C39.0789 10.0027 37.7408 8.07841 36.1308 6.41834C36.1633 6.42436 36.1956 6.43112 36.2277 6.43864C32.3964 2.46984 27.0254 0 21.0729 0C12.6115 0 5.31631 4.98961 1.96488 12.1864C7.375 13.2837 17.7418 13.9387 19.205 13.8652C21.0526 13.7652 20.9604 15.9067 20.9604 15.9067C20.9604 15.9067 20.4695 18.4359 17.9419 18.4359C15.4112 18.4359 8.11905 18.1436 1.40839 16.3928C1.13123 16.321 0.855055 16.2454 0.579929 16.1662C0.204756 17.7403 0 19.3816 0 21.0729C0 31.3319 7.33277 39.8761 17.0447 41.7566C16.1834 35.9432 15.691 26.1391 19.6926 21.2558" fill="#9098B1"/>
<path d="M22.9029 24.5598C21.2538 28.485 20.5582 32.6039 21.2694 39.0535C21.3757 40.0226 21.5164 41.048 21.6884 42.1298H21.7071C22.3527 42.1079 22.992 42.0594 23.6235 41.9797C23.622 41.9828 23.622 41.9844 23.622 41.9859C34.0576 40.7276 42.1454 31.8489 42.1454 21.0725C42.1454 19.7516 42.0188 18.462 41.7874 17.2068C41.7608 17.2115 41.7374 17.2177 41.7124 17.224C36.7838 18.2885 24.9116 19.7797 22.9029 24.5598Z" fill="#9098B1"/>
<path d="M217.199 14.4773C218.507 14.4773 219.548 15.5402 219.548 16.8705C219.548 18.221 218.507 19.2731 217.188 19.2731C215.879 19.2731 214.818 18.221 214.818 16.8705C214.818 15.5402 215.879 14.4773 217.188 14.4773H217.199ZM217.188 14.8493C216.134 14.8493 215.274 15.7528 215.274 16.8705C215.274 18.0084 216.134 18.8994 217.199 18.8994C218.263 18.912 219.113 18.0084 219.113 16.8814C219.113 15.7528 218.263 14.8493 217.199 14.8493H217.188ZM216.741 18.2617H216.317V15.5933C216.539 15.5621 216.751 15.5309 217.07 15.5309C217.475 15.5309 217.743 15.6153 217.899 15.7325C218.061 15.8482 218.144 16.0295 218.144 16.2859C218.144 16.636 217.91 16.8486 217.624 16.9345V16.9549C217.857 16.9971 218.018 17.2097 218.071 17.6036C218.135 18.0194 218.199 18.1773 218.24 18.2617H217.792C217.728 18.1773 217.666 17.9334 217.614 17.5817C217.55 17.2425 217.38 17.1143 217.038 17.1143H216.741V18.2617ZM216.741 16.7829H217.05C217.4 16.7829 217.697 16.6579 217.697 16.3265C217.697 16.0936 217.528 15.8591 217.05 15.8591C216.911 15.8591 216.816 15.87 216.741 15.881V16.7829Z" fill="#9098B1"/>
</svg>
